<svg viewBox="0 0 64 64" id="divining-community"><path d="M38,39H34a1.00045,1.00045,0,0,1-.92871-.62891L31.32324,34h-.64648l-1.74805,4.37109A1.00045,1.00045,0,0,1,28,39H24a3.00328,3.00328,0,0,1-3-3V28.98438a3.00328,3.00328,0,0,1,3-3H38a3.00328,3.00328,0,0,1,3,3V36A3.00328,3.00328,0,0,1,38,39Zm-3.32324-2H38a1.00067,1.00067,0,0,0,1-1V28.98438a1.00067,1.00067,0,0,0-1-1H24a1.00067,1.00067,0,0,0-1,1V36a1.00067,1.00067,0,0,0,1,1h3.32324l1.74805-4.37109A1.00045,1.00045,0,0,1,30,32h2a1.00045,1.00045,0,0,1,.92871.62891Z"></path><path d="M29.999,40a1.00108,1.00108,0,0,1-.44629-.10547l-2-1a1.00012,1.00012,0,1,1,.89454-1.78906l2,1A1,1,0,0,1,29.999,40Z"></path><path d="M32,40H30a1,1,0,0,1,0-2h2a1,1,0,0,1,0,2Z"></path><path d="M32.001 40a1 1 0 01-.44825-1.89453l2-1a1.00012 1.00012 0 01.89454 1.78906l-2 1A1.00108 1.00108 0 0132.001 40zM38 43a1 1 0 010-2 5.00588 5.00588 0 005-5 1 1 0 012 0A7.00848 7.00848 0 0138 43z"></path><path d="M44 37a.99943.99943 0 01-1-1V24a1 1 0 012 0V36A.99943.99943 0 0144 37zM38 43H34a1 1 0 010-2h4a1 1 0 010 2z"></path><path d="M34 43a.99943.99943 0 01-1-1V41a1 1 0 012 0v1A.99943.99943 0 0134 43zM22 35H18a.99943.99943 0 01-1-1V31a.99943.99943 0 011-1h4a.99943.99943 0 011 1v3A.99943.99943 0 0122 35zm-3-2h2V32H19zM44 35H40a.99943.99943 0 01-1-1V31a.99943.99943 0 011-1h4a.99943.99943 0 011 1v3A.99943.99943 0 0144 35zm-3-2h2V32H41zM8 16a8 8 0 118-8A8.00917 8.00917 0 018 16zM8 2a6 6 0 106 6A6.00657 6.00657 0 008 2z"></path><path d="M8,11a3,3,0,1,1,3-3A3.00328,3.00328,0,0,1,8,11ZM8,7A1,1,0,1,0,9,8,1.00067,1.00067,0,0,0,8,7Z"></path><path d="M11.99023 14.75a.99949.99949 0 01-.99707-.93848 3.00007 3.00007 0 00-5.98828 0 .99994.99994 0 11-1.99609-.123 4.99995 4.99995 0 019.98047 0 .99989.99989 0 01-.93653 1.05957C12.03223 14.749 12.01074 14.75 11.99023 14.75zM8 64a8 8 0 118-8A8.00917 8.00917 0 018 64zM8 50a6 6 0 106 6A6.00657 6.00657 0 008 50z"></path><path d="M8,59a3,3,0,1,1,3-3A3.00328,3.00328,0,0,1,8,59Zm0-4a1,1,0,1,0,1,1A1.00067,1.00067,0,0,0,8,55Z"></path><path d="M11.99023 62.75a.99949.99949 0 01-.99707-.93848 3.00007 3.00007 0 00-5.98828 0 1.01781 1.01781 0 01-1.05957.93653.99989.99989 0 01-.93652-1.05957 4.99995 4.99995 0 019.98047 0 .99989.99989 0 01-.93653 1.05957C12.03223 62.749 12.01074 62.75 11.99023 62.75zM56 16a8 8 0 118-8A8.00917 8.00917 0 0156 16zM56 2a6 6 0 106 6A6.00657 6.00657 0 0056 2z"></path><path d="M56,11a3,3,0,1,1,3-3A3.00328,3.00328,0,0,1,56,11Zm0-4a1,1,0,1,0,1,1A1.00067,1.00067,0,0,0,56,7Z"></path><path d="M59.99023 14.75a.99949.99949 0 01-.99707-.93848 3.00007 3.00007 0 00-5.98828 0 .99994.99994 0 11-1.99609-.123 4.99995 4.99995 0 019.98047 0 .99989.99989 0 01-.93653 1.05957C60.03223 14.749 60.01074 14.75 59.99023 14.75zM56 64a8 8 0 118-8A8.00917 8.00917 0 0156 64zm0-14a6 6 0 106 6A6.00657 6.00657 0 0056 50z"></path><path d="M56,59a3,3,0,1,1,3-3A3.00328,3.00328,0,0,1,56,59Zm0-4a1,1,0,1,0,1,1A1.00067,1.00067,0,0,0,56,55Z"></path><path d="M59.99023 62.75a.99949.99949 0 01-.99707-.93848 3.00007 3.00007 0 00-5.98828 0 1.01472 1.01472 0 01-1.05957.93653.99989.99989 0 01-.93652-1.05957 4.99995 4.99995 0 019.98047 0 .99989.99989 0 01-.93653 1.05957C60.03223 62.749 60.01074 62.75 59.99023 62.75zM8 46a.99943.99943 0 01-1-1V19a1 1 0 012 0V45A.99943.99943 0 018 46zM45 57H19a1 1 0 010-2H45a1 1 0 010 2zM45 9H19a1 1 0 010-2H45a1 1 0 010 2zM56 46a.99943.99943 0 01-1-1V19a1 1 0 012 0V45A.99943.99943 0 0156 46zM32 52a20 20 0 01-.002-40h.0039A19.99848 19.99848 0 0152 32h0A20.00016 20.00016 0 0132 52zm-.002-38A18.00015 18.00015 0 1050 32h0A17.998 17.998 0 0032.002 14h-.0039z"></path></svg>