<svg xmlns="http://www.w3.org/2000/svg" viewBox="0 0 68 68" id="Globalcommunity"><path fill="#d8a353" d="M33.8 16.5c-11.1 0-20.2 9.1-19.9 20.3.3 10.5 9 19.2 19.9 19.2 10.9 0 20.1-8.9 19.9-20.1.1-9.8-8.4-19.4-19.9-19.4zm9.5 18.7c0-2-.2-3.8-.5-5.6 4.9 1.1 8.3 3.2 8.8 5.6h-8.3zm-2 0h-6.5v-6.5c2.1 0 4.1.2 5.9.5.4 1.8.6 3.9.6 6zm-6.5-8.4v-8.1c2.1.7 4.2 3.8 5.4 8.4-1.6-.2-3.5-.3-5.4-.3zm-2-8.1v8.1c-1.9.1-3.8.3-5.5.6 1.2-4.8 3.4-7.9 5.5-8.7zm0 10.1v6.4h-6.5c0-2 .2-3.9.5-5.7 2-.3 4-.6 6-.7zm-8.5 6.4h-8c1.3-2.7 5.6-4.4 8.5-5.2-.3 1.7-.4 3.4-.5 5.2zm0 2c0 2 .2 3.8.5 5.6-4.9-1.1-8.3-3.2-8.8-5.6h8.3zm2 0h6.5v6.4c-2.1 0-4.1-.2-5.9-.4-.3-1.8-.5-3.8-.6-6zm6.5 8.5v8.1c-2.1-.7-4.2-3.8-5.4-8.4 1.7.1 3.5.3 5.4.3zm2 8.1v-8.1c1.9-.1 3.8-.3 5.5-.6-1.1 4.7-3.3 7.9-5.5 8.7zm0-10.2v-6.4h6.5c0 2-.2 3.9-.5 5.7-1.9.4-3.9.6-6 .7zm8.5-6.4h8c-1.3 2.7-5.6 4.4-8.5 5.2.4-1.6.5-3.4.5-5.2zM51 31c-2-1.6-5-2.8-8.5-3.5-.8-3.5-2.1-6.4-3.7-8.3C44.5 20.8 49.2 25.3 51 31zM29 19.2c-1.7 2-3 5-3.8 8.7-3 .7-6.3 2-8.7 4 1.6-6.1 6.4-11 12.5-12.7zM16.7 41.5c2 1.6 5 2.8 8.5 3.5.8 3.5 2.1 6.4 3.7 8.3-5.7-1.7-10.4-6.1-12.2-11.8zm22 11.8c1.7-2 3-5 3.8-8.7 3-.7 6.3-2 8.7-4-1.6 6.1-6.4 11-12.5 12.7zm-30-42.1c2.8 0 5.2-2.3 5.2-5.1S11.5 1 8.7 1 3.6 3.3 3.6 6.1s2.3 5.1 5.1 5.1zm0-8.2c1.7 0 3.2 1.4 3.2 3.1s-1.4 3.1-3.2 3.1-3.1-1.4-3.1-3.1S7 3 8.7 3zM2 22.3h13.4c.6 0 1-.4 1-1v-5.1c0-2.5-2-4.5-4.5-4.5H5.5c-2.5 0-4.5 2-4.5 4.5v5.1c0 .6.4 1 1 1zm1-6.1c0-1.4 1.1-2.5 2.5-2.5h6.4c1.4 0 2.5 1.1 2.5 2.5v4.1H3v-4.1zm56.3-5c2.8 0 5.2-2.3 5.2-5.1S62.1 1 59.3 1s-5.2 2.3-5.2 5.1 2.4 5.1 5.2 5.1zm0-8.2c1.7 0 3.2 1.4 3.2 3.1S61 9.2 59.3 9.2s-3.2-1.4-3.2-3.1S57.6 3 59.3 3zm3.2 8.7h-6.4c-2.5 0-4.5 2-4.5 4.5v5.1c0 .6.4 1 1 1H66c.6 0 1-.4 1-1v-5.1c0-2.5-2-4.5-4.5-4.5zm2.5 8.6H53.6v-4.1c0-1.4 1.1-2.5 2.5-2.5h6.4c1.4 0 2.5 1.1 2.5 2.5v4.1zM3.6 50.8c0 2.8 2.3 5.1 5.2 5.1s5.2-2.3 5.2-5.1-2.3-5.1-5.2-5.1-5.2 2.3-5.2 5.1zm5.1-3.1c1.7 0 3.2 1.4 3.2 3.1s-1.4 3.1-3.2 3.1-3.2-1.4-3.2-3.1 1.5-3.1 3.2-3.1zm3.2 8.7H5.5c-2.5 0-4.5 2-4.5 4.5V66c0 .6.4 1 1 1h13.4c.6 0 1-.4 1-1v-5.1c0-2.5-2-4.5-4.5-4.5zm2.5 8.6H3v-4.1c0-1.4 1.1-2.5 2.5-2.5h6.4c1.4 0 2.5 1.1 2.5 2.5V65zm39.7-14.2c0 2.8 2.3 5.1 5.2 5.1s5.2-2.3 5.2-5.1-2.3-5.1-5.2-5.1-5.2 2.3-5.2 5.1zm5.2-3.1c1.7 0 3.2 1.4 3.2 3.1s-1.4 3.1-3.2 3.1-3.2-1.4-3.2-3.1 1.5-3.1 3.2-3.1zm3.2 8.7h-6.4c-2.5 0-4.5 2-4.5 4.5V66c0 .6.4 1 1 1H66c.6 0 1-.4 1-1v-5.1c0-2.5-2-4.5-4.5-4.5zM65 65H53.6v-4.1c0-1.4 1.1-2.5 2.5-2.5h6.4c1.4 0 2.5 1.1 2.5 2.5V65zM19.8 12.7h27.9c.6 0 1-.4 1-1s-.4-1-1-1H19.8c-.6 0-1 .4-1 1s.5 1 1 1zm27.9 47.2H19.8c-.6 0-1 .4-1 1s.4 1 1 1h27.9c.6 0 1-.4 1-1s-.4-1-1-1zm12.7-18.7V25.3c0-.6-.4-1-1-1s-1 .4-1 1v15.9c0 .6.4 1 1 1s1-.5 1-1zm-50.5.5V25.8c0-.6-.4-1-1-1s-1 .4-1 1v15.9c0 .6.4 1 1 1s1-.4 1-1z" class="color010101 svgShape"></path></svg>